#!OML:ASF H:\Terrain\Patient Classification 1\Animal1\Tuesday\Animal1.ASF
:FULLY-SPECIFIED
:DEGREES
1873
root 12.858 16.5764 -12.3429 12.5681 -25.9971 2.58287
lowerback -0.219951 -0.706184 0.435861
upperback -10.8378 -0.985356 0.737672
thorax -11.441 -0.530676 0.656599
lowerneck -1.10741 3.24782 -3.29436
upperneck 8.92517 3.86855 7.51215
head 2.85442 2.05012 3.16379
rclavicle 2.14687e-014 5.56597e-015
rhumerus 3.44462 -15.4925 -4.93057
rradius 22.5921
rwrist -16.4082
rhand -3.78611 7.50559
rfingers 7.12502
rthumb 21.9593 -21.268
lclavicle 2.14687e-014 5.56597e-015
lhumerus 6.58598 26.69 18.4414
lradius 28.595
lwrist -47.5723
lhand 9.67343 49.6768
lfingers 7.12502
lthumb 34.8165 76.2756
rfemur -25.0094 29.0655 15.86
rtibia 24.3841
rfoot -11.5036 -33.862
rtoes 7.84577
lfemur -13.9446 -31.985 -18.7528
ltibia 14.5619
lfoot -15.0814 27.0574
ltoes 7.71928
1874
root 12.8584 16.5741 -12.3433 12.5627 -25.9741 2.5603
lowerback -0.231454 -0.719675 0.461154
upperback -10.817 -1.00186 0.738437
thorax -11.4103 -0.54106 0.644277
lowerneck -1.17651 3.15169 -3.49447
upperneck 8.96753 3.73448 7.66384
head 2.88558 1.98304 3.2547
rclavicle 5.86415e-014 3.02153e-014
rhumerus 3.52708 -15.7508 -5.06072
rradius 22.5249
rwrist -16.0848
rhand -3.86891 7.39076
rfingers 7.12502
rthumb 21.8798 -21.3921
lclavicle 5.86415e-014 3.02153e-014
lhumerus 6.60621 26.8036 18.4765
lradius 28.5964
lwrist -47.6548
lhand 9.84647 49.5928
lfingers 7.12502
lthumb 34.9807 76.1534
rfemur -24.9791 29.1204 15.8901
rtibia 24.3657
rfoot -11.2833 -34.0237
rtoes 7.76859
lfemur -13.9566 -31.9218 -18.7412
ltibia 14.6048
lfoot -15.0988 26.9916
ltoes 7.83982
1875
root 12.8584 16.5751 -12.3434 12.6515 -25.9658 2.39742
lowerback -0.250829 -0.726003 0.600792
upperback -10.8262 -0.998698 0.780905
thorax -11.411 -0.550585 0.611706
lowerneck -1.14991 3.14414 -3.50751
upperneck 8.96104 3.72151 7.70147
head 2.87859 1.97674 3.2689
rclavicle -1.63997e-014 -8.74653e-015
rhumerus 3.65185 -16.1198 -5.22558
rradius 22.454
rwrist -15.6443
rhand -3.68738 7.55803
rfingers 7.12502
rthumb 22.0541 -21.2044
lclavicle -1.63997e-014 -8.74653e-015
lhumerus 6.45097 26.5265 18.3274
lradius 28.674
lwrist -47.3205
lhand 9.82524 49.6914
lfingers 7.12502
lthumb 34.9606 76.2566
rfemur -24.9914 29.2872 16.0083
rtibia 24.3445
rfoot -11.4016 -34.0344
rtoes 8.81397
lfemur -13.9903 -31.8594 -18.569
ltibia 14.6261
lfoot -15.2299 26.8996
ltoes 7.87044
1876
root 12.8589 16.5783 -12.3434 12.6641 -25.9828 2.3854
lowerback -0.262101 -0.704373 0.593351
upperback -10.8453 -0.970546 0.776898
thorax -11.4263 -0.536506 0.609016
lowerneck -1.13468 3.19336 -3.2301
upperneck 9.08765 3.77953 7.56157
head 2.9207 2.0111 3.17345
rclavicle -3.21037e-014 -1.19271e-014
rhumerus 3.63085 -16.109 -5.20966
rradius 22.4312
rwrist -15.5258
rhand -3.72749 7.55823
rfingers 7.12502
rthumb 22.0156 -21.2088
lclavicle -3.21037e-014 -1.19271e-014
lhumerus 6.49327 26.7218 18.4851
lradius 28.722
lwrist -47.5502
lhand 9.72482 49.4489
lfingers 7.12502
lthumb 34.8653 76.0364
rfemur -25.0062 29.3979 15.9778
rtibia 24.3057
rfoot -11.257 -33.9845
rtoes 8.70976
lfemur -14.0249 -31.4668 -18.6021
ltibia 14.6778
lfoot -15.1815 26.5675
ltoes 7.39778
1877
root 12.8608 16.578 -12.3431 12.627 -25.9841 2.48485
lowerback -0.302704 -0.685061 0.497731
upperback -10.8432 -0.953866 0.738482
thorax -11.3981 -0.521543 0.618542
lowerneck -1.04924 3.19499 -3.05513
upperneck 9.0852 3.77833 7.49041
head 2.90729 2.01248 3.11366
rclavicle -2.78299e-015 -6.36111e-015
rhumerus 3.47682 -15.6433 -5.03815
rradius 22.5437
rwrist -16.0003
rhand -3.85713 7.37164
rfingers 7.12502
rthumb 21.8911 -21.4099
lclavicle -2.78299e-015 -6.36111e-015
lhumerus 6.69816 27.3297 18.8315
lradius 28.6896
lwrist -48.2125
lhand 9.56784 48.9293
lfingers 7.12502
lthumb 34.7163 75.5512
rfemur -25.0191 29.2771 15.893
rtibia 24.3108
rfoot -11.1796 -34.0189
rtoes 8.17305
lfemur -14.0174 -31.078 -18.7471
ltibia 14.6567
lfoot -15.0819 26.2182
ltoes 7.39793
1878
root 12.8622 16.5763 -12.3426 12.6104 -25.9674 2.55394
lowerback -0.34209 -0.699148 0.414392
upperback -10.8286 -0.977543 0.744751
thorax -11.3554 -0.524809 0.672934
lowerneck -1.0399 3.1968 -3.08224
upperneck 9.05033 3.78238 7.50666
head 2.89283 2.01363 3.12294
rclavicle 3.51849e-014 1.59028e-015
rhumerus 3.47285 -15.4695 -4.98298
rradius 22.636
rwrist -16.2377
rhand -3.99353 7.23752
rfingers 7.12502
rthumb 21.7602 -21.5593
lclavicle 3.51849e-014 1.59028e-015
lhumerus 6.61266 27.2841 18.7857
lradius 28.7196
lwrist -48.1653
lhand 9.75725 48.9994
lfingers 7.12502
lthumb 34.8961 75.5797
rfemur -25.0357 29.0363 15.8757
rtibia 24.3676
rfoot -10.931 -34.0213
rtoes 7.34385
lfemur -13.9732 -31.186 -18.7973
ltibia 14.5419
lfoot -15.0529 26.2846
ltoes 7.62614
1879
root 12.8623 16.5772 -12.3422 12.5818 -25.975 2.63819
lowerback -0.383389 -0.72172 0.320485
upperback -10.8082 -1.0143 0.740461
thorax -11.3046 -0.534196 0.722907
lowerneck -1.07239 3.17413 -3.25354
upperneck 9.02511 3.75173 7.62336
head 2.88837 1.99671 3.19468
rclavicle 2.5842e-014 -3.18055e-015
rhumerus 3.59711 -15.7342 -5.09751
rradius 22.6171
rwrist -16.0257
rhand -3.85205 7.17964
rfingers 7.12502
rthumb 21.896 -21.6014
lclavicle 2.5842e-014 -3.18055e-015
lhumerus 6.47147 27.116 18.6331
lradius 28.7524
lwrist -47.9943
lhand 9.9548 49.265
lfingers 7.12502
lthumb 35.0835 75.8015
rfemur -25.0736 29.0111 15.7875
rtibia 24.4261
rfoot -10.9241 -33.9779
rtoes 6.73165
lfemur -13.9306 -31.3175 -18.8672
ltibia 14.445
lfoot -14.9889 26.4248
ltoes 7.35959
1880
root 12.8621 16.5773 -12.3421 12.58 -25.9767 2.63761
lowerback -0.414464 -0.733556 0.329971
upperback -10.793 -1.03184 0.719796
thorax -11.2685 -0.545039 0.696147
lowerneck -1.05854 3.15027 -3.32149
upperneck 8.99408 3.71632 7.71689
head 2.87539 1.97917 3.23763
rclavicle -2.18663e-014 -3.97569e-014
rhumerus 3.65586 -15.8107 -5.18091
rradius 22.5965
rwrist -16.0793
rhand -3.54483 7.29454
rfingers 7.12502
rthumb 22.191 -21.4517
lclavicle -2.18663e-014 -3.97569e-014
lhumerus 6.47423 27.3059 18.6372
lradius 28.7728
lwrist -48.2481
lhand 9.86423 49.41
lfingers 7.12502
lthumb 34.9976 75.9666
rfemur -25.1081 29.1977 15.7423
rtibia 24.4694
rfoot -11.3126 -34.0766
rtoes 7.45188
lfemur -13.9049 -31.4357 -18.8484
ltibia 14.3894
lfoot -14.9677 26.5183
ltoes 7.3871
1881
root 12.8625 16.5763 -12.3395 12.5672 -25.9642 2.58629
lowerback -0.370771 -0.73464 0.380781
upperback -10.798 -1.03019 0.717339
thorax -11.302 -0.549026 0.665992
lowerneck -1.14819 3.20035 -3.14375
upperneck 9.16742 3.77032 7.68628
head 2.9507 2.01409 3.20337
rclavicle -1.68967e-015 -1.98785e-015
rhumerus 3.60322 -15.3778 -5.09837
rradius 22.6392
rwrist -16.5201
rhand -3.73278 7.30129
rfingers 7.12502
rthumb 22.0105 -21.4663
lclavicle -1.68967e-015 -1.98785e-015
lhumerus 6.46686 27.3995 18.6548
lradius 28.8038
lwrist -48.4484
lhand 9.79037 49.3998
lfingers 7.12502
lthumb 34.9275 75.9728
rfemur -25.0531 29.4142 15.7655
rtibia 24.4695
rfoot -11.5642 -34.1449
rtoes 8.73
lfemur -13.8621 -31.5422 -18.8164
ltibia 14.4037
lfoot -14.9507 26.5471
ltoes 7.70955
